HIERARCHY
ROOT ui
{
	 OFFSET 0 0 0
	 CHANNELS 3 XPosition YPosition Z Position
	 EndSite
	 {
	 OFFSET 0 -1 0
	 }
}
ROOT li
{
	 OFFSET 0 0 0
	 CHANNELS 3 XPosition YPosition Z Position
	 EndSite
	 {
	 OFFSET 0 -1 0
	 }
}
ROOT ul
{
	 OFFSET 0 0 0
	 CHANNELS 3 XPosition YPosition Z Position
	 EndSite
	 {
	 OFFSET 0 -1 0
	 }
}
ROOT ll
{
	 OFFSET 0 0 0
	 CHANNELS 3 XPosition YPosition Z Position
	 EndSite
	 {
	 OFFSET 0 -1 0
	 }
}
ROOT tt
{
	 OFFSET 0 0 0
	 CHANNELS 3 XPosition YPosition Z Position
	 EndSite
	 {
	 OFFSET 0 -1 0
	 }
}
ROOT tb
{
	 OFFSET 0 0 0
	 CHANNELS 3 XPosition YPosition Z Position
	 EndSite
	 {
	 OFFSET 0 -1 0
	 }
}
ROOT td
{
	 OFFSET 0 0 0
	 CHANNELS 3 XPosition YPosition Z Position
	 EndSite
	 {
	 OFFSET 0 -1 0
	 }
}
ROOT v
{
	 OFFSET 0 0 0
	 CHANNELS 3 XPosition YPosition Z Position
	 EndSite
	 {
	 OFFSET 0 -1 0
	 }
}
ROOT bn
{
	 OFFSET 0 0 0
	 CHANNELS 3 XPosition YPosition Z Position
	 EndSite
	 {
	 OFFSET 0 -1 0
	 }
}
MOTION
Frames: 32
Frame Time: 0.002
-0.014592995643615722	-0.0034811480045318604	0		0.5072483520507812	-2.422494384765625	0		-1.0668546142578126	0.23005140686035155	0		-0.6957728271484375	-2.77453564453125	0		1.8019720458984374	-0.5257648315429687	0		3.274351318359375	-0.034184101104736325	0		4.59100927734375	0.23495567321777344	0		5.98837158203125	0.545759033203125	0		-0.07634968566894532	5.96437109375	0		
0.006107234001159668	6.054589748382568E-4	0		0.5069089660644531	-2.42205322265625	0		-1.05723828125	0.2293111114501953	0		-0.701207763671875	-2.780022216796875	0		1.792415771484375	-0.5371593627929687	0		3.27512109375	-0.025733034133911134	0		4.6116240234375	0.23408860778808593	0		5.99700146484375	0.5461051025390625	0		-0.046394027709960935	5.98730517578125	0		
-0.004168958187103272	0.007223909854888916	0		0.5174505615234375	-2.42777783203125	0		-1.058484375	0.23777098083496093	0		-0.6567842407226563	-2.79332080078125	0		1.7849110107421875	-0.5445740966796875	0		3.279294677734375	-0.05233220672607422	0		4.622994140625	0.2193825225830078	0		5.99175341796875	0.554689697265625	0		-0.0771987075805664	5.96525927734375	0		
0.017373710632324218	0.003326797962188721	0		0.53009130859375	-2.426523193359375	0		-1.0629228515625	0.23529953002929688	0		-0.666321044921875	-2.802705810546875	0		1.77226220703125	-0.5598947143554688	0		3.3279169921875	-0.051659770965576175	0		4.65023583984375	0.19741452026367187	0		5.99522900390625	0.5471260986328125	0		-0.11071548461914063	5.960275390625	0		
-0.021049922943115234	0.0024374001026153565	0		0.49967202758789064	-2.427544189453125	0		-1.073450439453125	0.227943603515625	0		-0.6378804321289062	-2.812708251953125	0		1.798581787109375	-0.576857421875	0		3.30930810546875	-0.06387232208251953	0		4.64572412109375	0.1909716339111328	0		5.99456640625	0.53162109375	0		-0.07802943420410156	5.96620556640625	0		
0.014394554138183593	-0.0066721529960632325	0		0.5330459594726562	-2.440620849609375	0		-1.0787674560546876	0.23351490783691406	0		-0.6704981079101563	-2.824686767578125	0		1.80101318359375	-0.586422119140625	0		3.3206064453125	-0.08158810424804687	0		4.65505615234375	0.17528636169433592	0		5.98616748046875	0.5322301025390626	0		-0.11153141784667969	5.96024169921875	0		
-0.012005825996398926	-0.0057494797706604	0		0.5175624389648438	-2.4438837890625	0		-1.074253662109375	0.22893006896972656	0		-0.62819140625	-2.840904052734375	0		1.811138916015625	-0.6141213989257812	0		3.332917724609375	-0.09833159637451172	0		4.668501953125	0.166516845703125	0		5.9947490234375	0.5315342407226562	0		-0.07583672332763672	5.964134765625	0		
0.024751165390014648	0.004125631809234619	0		0.5471776733398438	-2.44089697265625	0		-1.064523681640625	0.23726577758789064	0		-0.6995166015625	-2.833226318359375	0		1.807662109375	-0.61759912109375	0		3.36084130859375	-0.07834439849853515	0		4.67909814453125	0.1667749786376953	0		6.00263232421875	0.5488255615234375	0		-0.045814765930175784	5.98612548828125	0		
-0.008746430397033692	-8.352670073509216E-4	0		0.5146587524414062	-2.4448828125	0		-1.046908203125	0.23847215270996094	0		-0.6283887939453126	-2.85892041015625	0		1.83496337890625	-0.63460107421875	0		3.338924560546875	-0.1085531005859375	0		4.67944873046875	0.1521776123046875	0		5.99297314453125	0.533374267578125	0		-0.07845293426513672	5.96715087890625	0		
0.012783517837524414	-0.0047156882286071775	0		0.5350560913085938	-2.45375634765625	0		-1.0523697509765626	0.23506254577636718	0		-0.6448114624023438	-2.85615625	0		1.8643294677734374	-0.6476508178710938	0		3.36751806640625	-0.10861844635009765	0		4.694916015625	0.14430281066894532	0		5.9845849609375	0.53387158203125	0		-0.07774931335449219	5.96662109375	0		
-0.0185278377532959	0.001279554009437561	0		0.534595458984375	-2.453290771484375	0		-1.0196839599609375	0.24001675415039062	0		-0.6066046142578125	-2.87530908203125	0		1.8636806640625	-0.6612166748046875	0		3.37688134765625	-0.12238895416259765	0		4.704251953125	0.12849922180175782	0		5.98419921875	0.5342001953125	0		-0.07701513671875	5.96608544921875	0		
0.011985940933227539	-0.003766350984573364	0		0.5139922485351562	-2.46050048828125	0		-1.0970643310546875	0.24180551147460938	0		-0.6661148071289062	-2.875833251953125	0		1.8571295166015624	-0.668700439453125	0		3.405609130859375	-0.11450553894042968	0		4.70872314453125	0.12074603271484376	0		5.9889501953125	0.5424061889648437	0		-0.046870212554931644	5.9880546875	0		
-0.007292323112487793	0.004012103080749512	0		0.5424867553710937	-2.46154248046875	0		-1.0584593505859374	0.24165249633789063	0		-0.6337025146484375	-2.880900146484375	0		1.8872344970703125	-0.696819580078125	0		3.385841064453125	-0.13584254455566405	0		4.72929296875	0.11869033050537109	0		5.99628515625	0.5255252685546875	0		-0.07742165374755859	5.9670234375	0		
0.011189699172973633	-0.0028546249866485598	0		0.537922607421875	-2.4650458984375	0		-1.0730469970703125	0.23038308715820313	0		-0.6274530639648438	-2.8945390625	0		1.9024871826171874	-0.7157108764648438	0		3.437514404296875	-0.13140231323242188	0		4.7386298828125	0.10278437805175782	0		5.991060546875	0.53481640625	0		-0.07659513092041016	5.9664609375	0		
-0.01520499038696289	-0.0019781500101089477	0		0.5691375732421875	-2.481167724609375	0		-1.034440185546875	0.23021485900878907	0		-0.6001730346679688	-2.905541015625	0		1.934883056640625	-0.7259129638671875	0		3.42980810546875	-0.14900010681152343	0		4.74998193359375	0.0878066635131836	0		5.9906865234375	0.534981201171875	0		-0.11179930877685547	5.96249365234375	0		
0.007325142860412598	-0.005938597202301025	0		0.5136703491210938	-2.476841796875	0		-1.0788717041015625	0.22843780517578124	0		-0.6376982421875	-2.903458984375	0		1.9459725341796874	-0.7537838134765625	0		3.430181884765625	-0.16176376342773438	0		4.76267041015625	0.0927703399658203	0		5.9912978515625	0.5340850219726563	0		-0.10992765808105469	5.960892578125	0		
-0.016003484725952147	-0.0011360800266265868	0		0.542128173828125	-2.476947998046875	0		-1.074208251953125	0.2318268585205078	0		-0.6273972778320313	-2.91119482421875	0		1.92422900390625	-0.7711205444335938	0		3.47146240234375	-0.18025100708007813	0		4.77200341796875	0.07675040435791015	0		5.99892724609375	0.5340278930664063	0		-0.10804447174072265	5.95827880859375	0		
-0.009283853530883788	0.006146366119384765	0		0.5187034912109375	-2.46918896484375	0		-1.0355982666015624	0.23162974548339843	0		-0.6130576171875	-2.916010009765625	0		1.9655572509765624	-0.784546875	0		3.470410400390625	-0.15904397583007812	0		4.77982958984375	0.08972747039794922	0		6.0036962890625	0.5419830322265625	0		-0.07498774719238281	5.964125	0		
0.009200263023376464	-7.86395013332367E-4	0		0.5649423217773437	-2.481632080078125	0		-0.9691240234375	0.22294256591796874	0		-0.6285477294921875	-2.910326171875	0		1.9559273681640625	-0.7951255493164062	0		3.463478271484375	-0.1897656707763672	0		4.7932001953125	0.07557952880859375	0		5.99406494140625	0.5261508178710937	0		-0.07598906707763672	5.96553662109375	0		
-0.01718107032775879	3.6977000534534455E-5	0		0.5364010620117188	-2.480810546875	0		-1.0505341796875	0.22177177429199219	0		-0.5874181518554688	-2.9276240234375	0		1.988074951171875	-0.8194351196289062	0		3.4770615234375	-0.19085050964355468	0		4.80354443359375	0.059462394714355465	0		5.9937138671875	0.5261422119140625	0		0.056402938842773434	5.9876552734375	0		
0.00537621784210205	-0.003989528894424438	0		0.5587451782226562	-2.48787255859375	0		-0.9789868774414062	0.21597010803222655	0		-0.622922607421875	-2.923616943359375	0		1.9874102783203125	-0.8331951904296875	0		3.5154150390625	-0.20637811279296875	0		4.80802197265625	0.05043216323852539	0		5.98537841796875	0.5262567138671875	0		-0.10808641815185546	5.95984326171875	0		
0.008094943046569825	3.140160143375397E-4	0		0.5353583984375	-2.480156494140625	0		-1.0512254638671874	0.22263194274902343	0		-0.5875017700195313	-2.92584130859375	0		2.03060302734375	-0.8567239379882813	0		3.504295166015625	-0.1920621337890625	0		4.809779296875	0.05644109344482422	0		5.99819921875	0.5339990844726562	0		-0.1070667953491211	5.959189453125	0		
0.007772409915924072	6.593570113182067E-4	0		0.5608217163085938	-2.483294921875	0		-1.0515338134765626	0.2230448760986328	0		-0.6188851318359375	-2.917922119140625	0		2.0361036376953123	-0.8636105346679688	0		3.52447216796875	-0.22029949951171876	0		4.82942236328125	0.054133853912353515	0		5.988912109375	0.5341181030273437	0		-0.07391010284423828	5.9649697265625	0		
0.00748167085647583	9.950889945030213E-4	0		0.53036474609375	-2.483471435546875	0		-0.9799086303710938	0.21719493103027343	0		-0.5864479370117187	-2.92312060546875	0		2.0245003662109373	-0.8782064819335937	0		3.517499267578125	-0.20106202697753905	0		4.83397802734375	0.04508635711669922	0		5.99665283203125	0.5339454956054688	0		0.05854729080200195	5.98601171875	0		
0.004156254768371582	-0.002625114917755127	0		0.5548717041015625	-2.48861083984375	0		-1.0611920166015625	0.2159932861328125	0		-0.621818115234375	-2.919148681640625	0		2.021123291015625	-0.8819451904296876	0		3.52875830078125	-0.22814656066894531	0		4.837845703125	0.05205889129638672	0		6.0012880859375	0.5258345947265625	0		-0.07373843383789062	5.96564208984375	0		
0.003935803890228271	-0.0023061869144439698	0		0.5265184936523437	-2.487832275390625	0		-0.9935508422851562	0.20718217468261718	0		-0.5852225952148438	-2.920442626953125	0		2.059305908203125	-0.9134152221679688	0		3.528525390625	-0.22802198791503905	0		4.8373310546875	0.035113868713378904	0		5.98409912109375	0.5261203002929687	0		-0.07264742279052734	5.96494775390625	0		
0.003751154899597168	-0.0019942259788513182	0		0.5557984619140625	-2.51106982421875	0		-1.0648016357421874	0.2037920379638672	0		-0.6055884399414062	-2.921749267578125	0		2.0300616455078124	-0.91369921875	0		3.5579384765625	-0.2504133605957031	0		4.8392529296875	0.04114272308349609	0		6.00192138671875	0.524810791015625	0		-0.10466250610351563	5.95782666015625	0		
0.013793065071105956	0.009134570121765136	0		0.558006591796875	-2.483828369140625	0		-0.9779732055664062	0.2016173095703125	0		-0.5736151733398438	-2.90697998046875	0		2.070634033203125	-0.9272063598632813	0		3.563339111328125	-0.21836495971679687	0		4.84733251953125	0.05408172988891601	0		6.00979443359375	0.5246978149414062	0		-0.07045298767089844	5.9625390625	0		
0.00655263614654541	0.0025609540939331055	0		0.553716796875	-2.487477783203125	0		-0.9990448608398438	0.20432974243164062	0		-0.6108289184570312	-2.905001708984375	0		2.064355224609375	-0.9338816528320313	0		3.5527724609375	-0.24302784729003907	0		4.84895166015625	0.0391531867980957	0		6.00485693359375	0.5338414916992188	0		-0.07129244232177734	5.96486181640625	0		
0.0033907270431518554	-0.0010870970487594604	0		0.5774481811523438	-2.492621337890625	0		-0.992378173828125	0.19054078674316408	0		-0.5740431518554687	-2.9063359375	0		2.096067626953125	-0.943217529296875	0		3.560794921875	-0.23599281311035156	0		4.85298388671875	0.04621474838256836	0		5.99164404296875	0.52616650390625	0		0.06218701171875	5.98480859375	0		
-0.022659011840820312	6.671879887580872E-4	0		0.5254076538085938	-2.486422607421875	0		-0.9964971313476563	0.18793255615234375	0		-0.6080973510742187	-2.900425537109375	0		2.098776123046875	-0.95402978515625	0		3.5714677734375	-0.24998477172851563	0		4.855001953125	0.05134507369995117	0		5.99642626953125	0.5172158813476563	0		0.06227320098876953	5.9851015625	0		
0.003262080907821655	-5.032619833946228E-4	0		0.57880029296875	-2.515094970703125	0		-0.9957103881835937	0.17922418212890626	0		-0.6021024169921875	-2.89423193359375	0		2.104576416015625	-0.9608839111328125	0		3.5697783203125	-0.22872860717773438	0		4.8628916015625	0.04840425109863281	0		6.00437744140625	0.517253662109375	0		-0.07007847595214843	5.963732421875	0		
